<?xml version="1.0" encoding="UTF-8" standalone="no"?>
<!-- Created with Inkscape (http://www.inkscape.org/) -->

<svg
   width="157"
   height="25"
   viewBox="0 0 41.539581 6.6145832"
   version="1.1"
   id="svg1"
   sodipodi:docname="logotype.svg"
   inkscape:version="1.3.2 (091e20ef0f, 2023-11-25, custom)"
   inkscape:export-filename="brandon-logotype.png"
   inkscape:export-xdpi="96"
   inkscape:export-ydpi="96"
   xmlns:inkscape="http://www.inkscape.org/namespaces/inkscape"
   xmlns:sodipodi="http://sodipodi.sourceforge.net/DTD/sodipodi-0.dtd"
   xmlns="http://www.w3.org/2000/svg"
   xmlns:svg="http://www.w3.org/2000/svg">
  <sodipodi:namedview
     id="namedview1"
     pagecolor="#ffffff"
     bordercolor="#000000"
     borderopacity="0.25"
     inkscape:showpageshadow="2"
     inkscape:pageopacity="0.0"
     inkscape:pagecheckerboard="0"
     inkscape:deskcolor="#d1d1d1"
     inkscape:zoom="31.94705"
     inkscape:cx="134.3473"
     inkscape:cy="19.407113"
     inkscape:window-width="2159"
     inkscape:window-height="1374"
     inkscape:window-x="1935"
     inkscape:window-y="0"
     inkscape:window-maximized="0"
     inkscape:current-layer="layer1"
     showgrid="true">
    <inkscape:grid
       id="grid1"
       units="px"
       originx="-0.79374995"
       originy="-0.26458326"
       spacingx="0.26458333"
       spacingy="0.26458333"
       empcolor="#0099e5"
       empopacity="0.30196078"
       color="#0099e5"
       opacity="0.14901961"
       empspacing="5"
       dotted="false"
       gridanglex="30"
       gridanglez="30"
       visible="true" />
    <inkscape:page
       x="0"
       y="0"
       width="41.539581"
       height="6.614583"
       id="page1"
       margin="0 0 0 0"
       bleed="0" />
  </sodipodi:namedview>
  <defs
     id="defs1" />
  <g
     id="layer1"
     transform="translate(-1.3229166,-1.5875)">
    <path
       id="text1"
       style="font-size:6.35px;line-height:0em;font-family:Lexend;-inkscape-font-specification:Lexend;text-align:center;letter-spacing:-0.3175px;text-anchor:middle;display:none;mix-blend-mode:normal;fill:#3e403a;fill-opacity:1;stroke:#3e403a;stroke-width:0.264583;stroke-dasharray:none;stroke-opacity:1;paint-order:stroke markers fill"
       d="M 16.766935,1.5213542 V 3.3072917 C 16.709826,3.2392665 16.64501,3.173829 16.563847,3.1150553 16.44108,3.0219222 16.301384,2.9498477 16.144751,2.8990479 c -0.1524,-0.055033 -0.31084,-0.082166 -0.47594,-0.082166 -0.300566,0 -0.569603,0.07601 -0.806669,0.2284099 -0.237066,0.1481663 -0.42564,0.3535169 -0.56534,0.615983 -0.135467,0.2582329 -0.203089,0.554402 -0.203089,0.8888347 0,0.3344326 0.07011,0.6330865 0.209807,0.8955525 0.1397,0.2582329 0.327757,0.4635835 0.564823,0.6159831 0.2413,0.1481664 0.514273,0.2222087 0.819072,0.2222087 0.152398,0 0.301,-0.025164 0.444934,-0.075964 0.148166,-0.0508 0.27699,-0.1189386 0.387056,-0.2036051 0.101941,-0.075512 0.18263,-0.1567488 0.24753,-0.2423625 v 0.45837 h 0.654224 v -4.698938 z m -15.57631,0.254248 v 4.44469 h 1.9177124 c 0.2328329,0 0.4401512,-0.027649 0.6221843,-0.082682 C 3.9125546,6.0783433 4.0670595,5.9939451 4.1940593,5.8838786 4.3252923,5.7738121 4.4225313,5.6380514 4.4860311,5.4771851 4.5537643,5.3120854 4.5878337,5.1240279 4.5878337,4.9123617 c 0,-0.207433 -0.042458,-0.3915548 -0.1271241,-0.5524211 C 4.3802765,4.1990743 4.2662613,4.0657981 4.1180949,3.959965 4.0196207,3.8868128 3.9056954,3.8336996 3.7847819,3.7904663 3.9332153,3.7234665 4.0555552,3.6302005 4.1496175,3.5088298 4.285084,3.3394967 4.3527059,3.1341461 4.3527059,2.8928467 4.3527059,2.6515471 4.302377,2.4486813 4.2007772,2.2835815 4.1034107,2.1142486 3.9572941,1.986876 3.762561,1.9022095 3.5678281,1.817543 3.3284081,1.7756022 3.0447754,1.7756022 Z m 25.488884,0 v 4.44469 h 1.917712 c 0.232833,0 0.440151,-0.027649 0.622184,-0.082682 0.182033,-0.059267 0.336538,-0.1436648 0.463538,-0.2537313 0.131233,-0.1100665 0.228472,-0.2458272 0.291972,-0.4066935 0.06773,-0.1650997 0.101802,-0.3531572 0.101802,-0.5648234 0,-0.207433 -0.04246,-0.3915548 -0.127124,-0.5524211 C 29.86916,4.1990743 29.755145,4.0657981 29.606978,3.959965 29.508505,3.8868128 29.394579,3.8336996 29.273665,3.7904663 c 0.14846,-0.067001 0.270762,-0.1602504 0.364836,-0.2816365 0.135467,-0.1693331 0.203088,-0.3746837 0.203088,-0.6159831 0,-0.2412996 -0.05033,-0.4441654 -0.151928,-0.6092652 C 29.592294,2.1142486 29.446177,1.986876 29.251445,1.9022095 29.056711,1.817543 28.817292,1.7756022 28.533659,1.7756022 Z M 1.8763713,2.4355103 h 1.0541992 c 0.2370661,0 0.4192201,0.050846 0.5462199,0.1524454 0.1269996,0.1015998 0.1901692,0.2477166 0.1901692,0.4382162 0,0.1142998 -0.029617,0.2159911 -0.088883,0.3048909 -0.055033,0.0889 -0.1330112,0.1590065 -0.234611,0.2098063 -0.097366,0.0508 -0.2099306,0.075964 -0.3369304,0.075964 H 1.8763713 Z m 25.4888837,0 h 1.054199 c 0.237066,0 0.41922,0.050846 0.54622,0.1524454 0.127,0.1015998 0.190169,0.2477166 0.190169,0.4382162 0,0.1142998 -0.02962,0.2159911 -0.08888,0.3048909 -0.05503,0.0889 -0.133011,0.1590065 -0.234611,0.2098063 -0.09737,0.0508 -0.209931,0.075964 -0.336931,0.075964 H 27.365255 Z M 6.7086345,2.8168823 c -0.1566331,0 -0.3086534,0.038005 -0.4568197,0.1142049 -0.1439331,0.0762 -0.2732736,0.1798591 -0.3875732,0.3110922 -0.072918,0.08694 -0.1265175,0.1827238 -0.1715658,0.2826701 V 2.8866455 H 5.032251 V 6.2202922 H 5.6926758 V 4.3790609 c 0,-0.1227665 0.023197,-0.2353306 0.069763,-0.3369304 0.046566,-0.105833 0.108285,-0.1966517 0.1844848,-0.2728515 0.080433,-0.080433 0.1712518,-0.1416349 0.2728516,-0.1839681 0.1058331,-0.046567 0.2159126,-0.07028 0.3302124,-0.07028 0.059267,0 0.1185004,0.0089 0.1777669,0.025838 0.0635,0.0127 0.1207658,0.029476 0.1715658,0.050643 L 7.0708862,2.8804443 c -0.0381,-0.016933 -0.09143,-0.031742 -0.1591634,-0.044442 -0.0635,-0.0127 -0.1311218,-0.01912 -0.2030883,-0.01912 z m 1.7652669,0 c -0.2920994,0 -0.5566838,0.074042 -0.79375,0.2222087 C 7.4473185,3.1872573 7.2612288,3.3926079 7.1215292,3.6550741 6.9860627,3.9133068 6.9184408,4.209476 6.9184408,4.5439087 c 0,0.3301994 0.067622,0.6263686 0.2030884,0.8888346 0.1354663,0.2624662 0.3151357,0.4703013 0.5395019,0.6227011 0.2285996,0.1523996 0.4808601,0.2284098 0.7560262,0.2284098 0.1608664,0 0.3128866,-0.025164 0.4568197,-0.075964 0.1481663,-0.0508 0.2819592,-0.1189386 0.4004923,-0.2036051 0.1227665,-0.084666 0.2219732,-0.1799376 0.298173,-0.2857707 0.0025,-0.00341 0.00376,-0.00692 0.0062,-0.010335 V 6.2202922 H 10.239168 V 2.8866455 H 9.5787435 v 0.515214 C 9.512523,3.2913261 9.4290706,3.1929013 9.3250122,3.1088542 9.2191791,3.015721 9.0942912,2.9436465 8.9503581,2.8928467 8.806425,2.8420467 8.6474677,2.8168823 8.4739014,2.8168823 Z m 4.1087936,0 c -0.1778,0 -0.351566,0.039973 -0.520899,0.1204061 -0.169333,0.0762 -0.31545,0.1778912 -0.438216,0.304891 -0.05318,0.053177 -0.09524,0.1100051 -0.133325,0.1679484 V 2.8866455 h -0.654224 v 3.3336467 h 0.165365 0.164848 0.324011 V 4.201294 c 0,-0.1100665 0.02123,-0.2117579 0.06356,-0.304891 0.04657,-0.097366 0.107768,-0.1822815 0.183968,-0.254248 0.08043,-0.071967 0.173736,-0.1267479 0.279569,-0.1648479 0.105834,-0.042333 0.222333,-0.063562 0.349333,-0.063562 0.156633,-0.00847 0.287942,0.016698 0.393774,0.075964 0.105833,0.055033 0.183813,0.1463685 0.234611,0.2733683 0.0508,0.1227665 0.07648,0.2792392 0.07648,0.4697388 v 1.9874756 h 0.654223 v -2.031917 c 0,-0.3090326 -0.04246,-0.5652289 -0.127124,-0.7684285 C 13.513987,3.2167467 13.386614,3.0666943 13.217281,2.9693278 13.047948,2.867728 12.836693,2.8168823 12.582695,2.8168823 Z m 6.921541,0 c -0.325966,0 -0.6182,0.07601 -0.876432,0.2284099 -0.254,0.1481663 -0.455415,0.3535169 -0.603581,0.615983 -0.148167,0.2582329 -0.222209,0.554402 -0.222209,0.8888347 0,0.3344326 0.07404,0.6330865 0.222209,0.8955525 0.148166,0.2582329 0.349581,0.4635835 0.603581,0.6159831 0.258232,0.1481664 0.550466,0.2222087 0.876432,0.2222087 0.321733,0 0.609513,-0.074042 0.863513,-0.2222087 0.258233,-0.1523996 0.461099,-0.3577502 0.609265,-0.6159831 0.148167,-0.262466 0.222209,-0.5611199 0.222209,-0.8955525 0,-0.3344327 -0.07404,-0.6306018 -0.222209,-0.8888347 -0.148166,-0.2624661 -0.351032,-0.4678167 -0.609265,-0.615983 -0.254,-0.1523998 -0.54178,-0.2284099 -0.863513,-0.2284099 z m 3.835425,0 c -0.1778,0 -0.351566,0.039973 -0.520899,0.1204061 -0.169333,0.0762 -0.315449,0.1778912 -0.438216,0.304891 -0.05318,0.053177 -0.09524,0.1100051 -0.133325,0.1679484 V 2.8866455 h -0.654224 v 3.3336467 h 0.165365 0.164848 0.324011 V 4.201294 c 0,-0.1100665 0.02123,-0.2117579 0.06356,-0.304891 0.04657,-0.097366 0.107768,-0.1822815 0.183968,-0.254248 0.08043,-0.071967 0.173736,-0.1267479 0.27957,-0.1648479 0.105832,-0.042333 0.222332,-0.063562 0.349332,-0.063562 0.156633,-0.00847 0.287941,0.016698 0.393775,0.075964 0.105833,0.055033 0.183811,0.1463685 0.234611,0.2733683 0.0508,0.1227665 0.07648,0.2792392 0.07648,0.4697388 v 1.9874756 h 0.653707 v -2.031917 c 0,-0.3090326 -0.04194,-0.5652289 -0.126608,-0.7684285 C 24.270953,3.2167467 24.14358,3.0666943 23.974247,2.9693278 23.804914,2.867728 23.593659,2.8168823 23.339661,2.8168823 Z m 8.515242,0 c -0.292098,0 -0.556683,0.074042 -0.79375,0.2222087 -0.232833,0.1481663 -0.419439,0.3535169 -0.559139,0.6159831 -0.135466,0.2582327 -0.203088,0.5544019 -0.203088,0.8888346 0,0.3301994 0.06762,0.6263686 0.203088,0.8888346 0.135467,0.2624662 0.315653,0.4703013 0.540019,0.6227011 0.2286,0.1523996 0.480344,0.2284098 0.755509,0.2284098 0.160867,0 0.313404,-0.025164 0.457337,-0.075964 0.148166,-0.0508 0.281443,-0.1189386 0.399975,-0.2036051 0.122767,-0.084666 0.22249,-0.1799376 0.29869,-0.2857707 0.0025,-0.00342 0.0038,-0.00691 0.0062,-0.010335 V 6.2202922 H 33.62017 V 2.8866455 H 32.959745 V 3.4023763 C 32.893472,3.2915863 32.80975,3.1930585 32.705497,3.1088542 32.599664,3.015721 32.474776,2.9436465 32.330843,2.8928467 32.18691,2.8420467 32.02847,2.8168823 31.854903,2.8168823 Z m 4.108277,0 c -0.1778,0 -0.351566,0.039973 -0.520899,0.1204061 -0.169333,0.0762 -0.314933,0.1778912 -0.437699,0.304891 -0.05318,0.053177 -0.09524,0.1100051 -0.133325,0.1679484 V 2.8866455 h -0.654224 v 3.3336467 h 0.164848 0.165364 0.324012 V 4.201294 c 0,-0.1100665 0.02071,-0.2117579 0.06305,-0.304891 0.04657,-0.097366 0.108285,-0.1822815 0.184485,-0.254248 0.08043,-0.071967 0.17322,-0.1267479 0.279052,-0.1648479 0.105834,-0.042333 0.222333,-0.063562 0.349333,-0.063562 0.156633,-0.00847 0.287941,0.016698 0.393775,0.075964 0.105832,0.055033 0.184327,0.1463685 0.235127,0.2733683 0.0508,0.1227665 0.07596,0.2792392 0.07596,0.4697388 v 1.9874756 h 0.654223 v -2.031917 c 0,-0.3090326 -0.04246,-0.5652289 -0.127124,-0.7684285 C 36.894472,3.2167467 36.767616,3.0666943 36.598283,2.9693278 36.42895,2.867728 36.217178,2.8168823 35.96318,2.8168823 Z m 3.143477,0 c -0.309033,0 -0.588425,0.07601 -0.838192,0.2284099 -0.245532,0.1481663 -0.440527,0.3535169 -0.58446,0.615983 -0.1397,0.2582329 -0.20929,0.554402 -0.20929,0.8888347 0,0.3344326 0.07156,0.6330865 0.215491,0.8955525 0.143933,0.2582329 0.338928,0.4635835 0.58446,0.6159831 0.249767,0.1481664 0.533095,0.2222087 0.850595,0.2222087 0.182032,0 0.360251,-0.038005 0.533817,-0.1142049 0.173567,-0.0762 0.317198,-0.1734388 0.431498,-0.2919719 0.05862,-0.060708 0.105238,-0.1227395 0.140043,-0.1855184 v 0.4010091 c 0,0.220133 -0.04049,0.4042548 -0.120922,0.5524211 -0.08043,0.1481664 -0.198901,0.2607305 -0.355534,0.3369303 -0.156633,0.0762 -0.351111,0.114205 -0.583944,0.114205 -0.122767,0 -0.247654,-0.014809 -0.374654,-0.044442 -0.127,-0.0254 -0.247952,-0.063405 -0.362252,-0.1142049 C 38.319013,6.8915116 38.219807,6.836213 38.13514,6.772713 l -0.241329,0.5079794 c 0.143933,0.118533 0.33199,0.2138041 0.564824,0.2857706 0.237065,0.0762 0.474518,0.114205 0.711584,0.114205 0.2667,0 0.505602,-0.038005 0.717269,-0.114205 C 40.099154,7.494497 40.27934,7.3863851 40.427507,7.242452 40.575672,7.1027522 40.68772,6.9295033 40.76392,6.7220703 40.84435,6.5188707 40.884326,6.2839032 40.884326,6.0172038 V 2.8866455 H 40.230619 V 3.3444987 C 40.187102,3.289246 40.138189,3.2353576 40.078174,3.1848185 39.997741,3.1170854 39.906406,3.0558837 39.804806,3.0008504 39.703206,2.9415839 39.593126,2.8971585 39.474593,2.8675252 39.35606,2.8336587 39.233657,2.8168823 39.106657,2.8168823 Z M 15.776815,3.3817057 c 0.198966,0 0.374183,0.050846 0.526583,0.1524455 0.1524,0.1015998 0.271384,0.2412963 0.35605,0.4190959 0.0889,0.1735663 0.133325,0.3724965 0.133325,0.5968628 0,0.2243662 -0.04443,0.4257811 -0.133325,0.6035807 -0.08467,0.1735662 -0.20365,0.3107781 -0.35605,0.4123779 -0.1524,0.1015998 -0.327617,0.1524455 -0.526583,0.1524455 -0.198966,0 -0.3747,-0.050846 -0.5271,-0.1524455 -0.1524,-0.1015998 -0.273352,-0.2388117 -0.362252,-0.4123779 -0.08467,-0.1777996 -0.127124,-0.3792145 -0.127124,-0.6035807 0,-0.2243663 0.04246,-0.4232965 0.127124,-0.5968628 0.0889,-0.1777996 0.209852,-0.3174961 0.362252,-0.4190959 0.1524,-0.1015998 0.328134,-0.1524455 0.5271,-0.1524455 z m 3.727421,0.032039 c 0.198966,0 0.376667,0.048361 0.533301,0.1457276 0.156633,0.097366 0.279036,0.2331272 0.367936,0.4066935 0.08887,0.169333 0.131324,0.3638108 0.127124,0.5839437 0.0042,0.2158996 -0.03822,0.4108941 -0.127124,0.5844604 -0.0889,0.169333 -0.211303,0.304577 -0.367936,0.4061768 -0.156634,0.097366 -0.334335,0.1462443 -0.533301,0.1462443 -0.198967,0 -0.379152,-0.048878 -0.540019,-0.1462443 C 18.807584,5.4391473 18.684664,5.3039033 18.595764,5.1345703 18.506898,4.961004 18.464957,4.7660095 18.469157,4.5501099 c -0.0042,-0.2158996 0.03771,-0.4084096 0.126607,-0.5777425 0.0889,-0.1735664 0.21182,-0.3088103 0.368453,-0.4061768 0.160867,-0.1015998 0.341052,-0.1524455 0.540019,-0.1524459 z m 19.691304,0 c 0.207434,0 0.38907,0.048361 0.545704,0.1457276 0.160865,0.097366 0.285754,0.2331272 0.374654,0.4066935 0.09313,0.169333 0.140043,0.3638108 0.140043,0.5839437 0,0.2201329 -0.04442,0.4151275 -0.133325,0.5844604 -0.0889,0.169333 -0.213789,0.3026091 -0.374654,0.3999756 -0.160867,0.097366 -0.344988,0.1462443 -0.552422,0.1462443 -0.203198,0 -0.385354,-0.048878 -0.546219,-0.1462443 C 38.492687,5.4371794 38.3678,5.3039033 38.274666,5.1345703 38.185768,4.961004 38.141341,4.7660095 38.141341,4.5501099 c 0,-0.2158996 0.04443,-0.4084096 0.133325,-0.5777425 C 38.3678,3.798801 38.492687,3.6635571 38.649321,3.5661906 38.810186,3.4645908 38.992342,3.4137451 39.19554,3.4137447 Z m -30.6069169,0.0062 c 0.1989662,0 0.3741832,0.048878 0.5265828,0.1462443 0.1523998,0.097366 0.2713842,0.2306426 0.3560506,0.3999756 0.0889,0.169333 0.1333252,0.3618429 0.1333252,0.5777425 0,0.2201329 -0.044425,0.4170953 -0.1333252,0.5906616 -0.084666,0.169333 -0.2036508,0.3026091 -0.3560506,0.3999756 -0.1523996,0.097366 -0.3276166,0.1462443 -0.5265828,0.1462443 -0.194733,0 -0.3684987,-0.048878 -0.5208985,-0.1462443 C 7.9195583,5.4371794 7.8010906,5.3039033 7.7121908,5.1345703 7.6275243,4.961004 7.5850668,4.7640416 7.5850668,4.5439087 c 0,-0.2158996 0.042458,-0.4084095 0.127124,-0.5777425 0.0889,-0.169333 0.2073675,-0.3026091 0.3555338,-0.3999756 0.1523998,-0.097367 0.3261655,-0.1462443 0.5208985,-0.1462443 z m 23.3804849,0 c 0.198967,0 0.3747,0.048878 0.5271,0.1462443 0.1524,0.097366 0.270867,0.2306426 0.355534,0.3999756 0.0889,0.169333 0.133325,0.3618429 0.133325,0.5777425 0,0.2201329 -0.04443,0.4170953 -0.133325,0.5906616 -0.08467,0.169333 -0.203134,0.3026091 -0.355534,0.3999756 -0.1524,0.097366 -0.328133,0.1462443 -0.5271,0.1462443 -0.194733,0 -0.368498,-0.048878 -0.520898,-0.1462443 -0.148167,-0.097365 -0.266634,-0.230641 -0.355534,-0.399974 -0.08467,-0.1735663 -0.127124,-0.3705287 -0.127124,-0.5906616 0,-0.2158996 0.04246,-0.4084095 0.127124,-0.5777425 0.0889,-0.169333 0.207367,-0.3026091 0.355534,-0.3999756 0.1524,-0.097367 0.326165,-0.1462443 0.520898,-0.1462443 z M 1.8763713,4.2772583 h 1.1622029 c 0.1735664,0 0.3236187,0.025164 0.4506185,0.075964 0.1269998,0.046566 0.2247555,0.1166731 0.2924886,0.2098063 0.071967,0.093133 0.107487,0.2051805 0.107487,0.3364136 0,0.1396996 -0.033553,0.2606521 -0.1012858,0.3622517 -0.0635,0.097367 -0.1568031,0.1714089 -0.2795695,0.2222087 -0.1185331,0.0508 -0.2646499,0.075964 -0.4382161,0.075964 H 1.8763713 Z m 25.4888837,0 h 1.162203 c 0.173566,0 0.323618,0.025164 0.450618,0.075964 0.127,0.046566 0.224756,0.1166731 0.292489,0.2098063 0.07197,0.093133 0.107487,0.2051805 0.107487,0.3364136 0,0.1396996 -0.03355,0.2606521 -0.101286,0.3622517 -0.0635,0.097367 -0.156804,0.1714089 -0.279569,0.2222087 -0.118534,0.0508 -0.26465,0.075964 -0.438217,0.075964 h -1.193725 z" />
    <rect
       style="fill:#84cc16;fill-opacity:1;stroke:#84cc16;stroke-width:0.269986;stroke-opacity:1;paint-order:stroke markers fill"
       id="rect1"
       width="36.771679"
       height="0.78834701"
       x="1.4579097"
       y="7.2787428" />
    <path
       d="m 1.3229167,6.2865 v -4.445 h 1.9303999 q 0.4445,0 0.7493,0.13335 0.31115,0.127 0.4699,0.37465 0.15875,0.24765 0.15875,0.59055 0,0.381 -0.1905,0.635 -0.1905,0.254 -0.5461,0.34925 l -0.00635,-0.127 q 0.2921,0.06985 0.51435,0.2286 0.22225,0.15875 0.3429,0.3937 0.12065,0.23495 0.12065,0.5334 0,0.3302 -0.10795,0.5842 -0.10795,0.24765 -0.3175,0.41275 -0.20955,0.1651 -0.4953,0.254 -0.2794,0.08255 -0.62865,0.08255 z M 2.2373166,5.461 h 1.0414 q 0.2032,0 0.3429,-0.05715 0.14605,-0.0635 0.22225,-0.1905 0.0762,-0.127 0.0762,-0.29845 0,-0.1651 -0.08255,-0.2794 -0.08255,-0.1143 -0.23495,-0.17145 -0.14605,-0.0635 -0.3556,-0.0635 h -1.00965 z m 0,-1.8161 h 0.9017 q 0.17145,0 0.29845,-0.0635 0.127,-0.0635 0.1905,-0.17145 0.06985,-0.10795 0.06985,-0.254 0,-0.23495 -0.1524,-0.36195 -0.1524,-0.127 -0.4572,-0.127 h -0.8509 z M 5.2853179,6.2865 V 2.92735 h 0.86995 l 0.03175,1.0795 -0.1524,-0.22225 q 0.0762,-0.26035 0.24765,-0.4699 0.17145,-0.2159 0.40005,-0.33655 0.23495,-0.12065 0.48895,-0.12065 0.10795,0 0.20955,0.01905 0.1016,0.01905 0.17145,0.04445 l -0.2413,0.9906 q -0.0762,-0.0381 -0.18415,-0.0635 -0.10795,-0.03175 -0.22225,-0.03175 -0.1524,0 -0.28575,0.05715 -0.127,0.0508 -0.22225,0.1524 -0.09525,0.09525 -0.1524,0.2286 -0.0508,0.13335 -0.0508,0.2921 V 6.2865 Z M 8.8667203,6.35 q -0.4191,0 -0.75565,-0.2286 -0.33655,-0.2286 -0.5334,-0.6223 -0.19685,-0.3937 -0.19685,-0.9017 0,-0.508 0.19685,-0.89535 0.2032,-0.3937 0.5461,-0.61595 0.3429,-0.2286 0.78105,-0.2286 0.24765,0 0.45085,0.0762 0.20955,0.06985 0.36195,0.19685 0.15875,0.127 0.2667,0.2921 0.1079497,0.1651 0.1523997,0.3556 L 9.9462203,3.7465 V 2.92735 H 10.84157 V 6.2865 H 9.9335203 V 5.48005 L 10.13672,5.461 q -0.0508,0.1778 -0.1650997,0.33655 -0.1143,0.15875 -0.28575,0.28575 -0.1651,0.12065 -0.37465,0.19685 Q 9.1016703,6.35 8.8667203,6.35 Z m 0.24765,-0.78105 q 0.254,0 0.4445,-0.12065 0.1905,-0.12065 0.2921,-0.33655 0.10795,-0.22225 0.10795,-0.51435 0,-0.28575 -0.10795,-0.50165 -0.1016,-0.2159 -0.2921,-0.33655 -0.1905,-0.127 -0.4445,-0.127 -0.24765,0 -0.43815,0.127 -0.18415,0.12065 -0.2921,0.33655 -0.10795,0.2159 -0.10795,0.50165 0,0.2921 0.10795,0.51435 0.10795,0.2159 0.2921,0.33655 0.1905,0.12065 0.43815,0.12065 z M 11.425777,6.2865 V 2.92735 h 0.8636 l 0.0254,0.6858 -0.1778,0.0762 q 0.06985,-0.2286 0.24765,-0.41275 0.18415,-0.1905 0.43815,-0.3048 0.254,-0.1143 0.5334,-0.1143 0.381,0 0.635,0.1524 0.26035,0.1524 0.38735,0.46355 0.13335,0.3048 0.13335,0.75565 v 2.0574 h -0.9017 V 4.29895 q 0,-0.2286 -0.0635,-0.381 -0.0635,-0.1524 -0.19685,-0.22225 -0.127,-0.0762 -0.3175,-0.0635 -0.1524,0 -0.28575,0.0508 -0.127,0.04445 -0.22225,0.13335 -0.0889,0.0889 -0.14605,0.2032 -0.0508,0.1143 -0.0508,0.24765 v 2.0193 h -0.4445 q -0.14605,0 -0.26035,0 -0.1143,0 -0.19685,0 z M 16.372425,6.35 q -0.43815,0 -0.7874,-0.22225 -0.34925,-0.2286 -0.55245,-0.61595 -0.19685,-0.3937 -0.19685,-0.90805 0,-0.50165 0.19685,-0.89535 0.2032,-0.3937 0.5461,-0.6223 0.34925,-0.2286 0.79375,-0.2286 0.23495,0 0.45085,0.0762 0.22225,0.06985 0.3937,0.19685 0.1778,0.127 0.28575,0.28575 0.10795,0.1524 0.12065,0.32385 l -0.2286,0.0381 V 1.5875 h 0.9017 v 4.699 h -0.8509 l -0.0381,-0.7747 0.1778,0.01905 q -0.0127,0.15875 -0.1143,0.3048 -0.1016,0.14605 -0.27305,0.2667 -0.1651,0.1143 -0.381,0.18415 -0.20955,0.0635 -0.4445,0.0635 z m 0.2032,-0.7493 q 0.254,0 0.4445,-0.127 0.1905,-0.127 0.29845,-0.34925 0.10795,-0.22225 0.10795,-0.5207 0,-0.2921 -0.10795,-0.51435 -0.10795,-0.2286 -0.29845,-0.34925 -0.1905,-0.127 -0.4445,-0.127 -0.254,0 -0.4445,0.127 -0.18415,0.12065 -0.2921,0.34925 -0.1016,0.22225 -0.1016,0.51435 0,0.29845 0.1016,0.5207 0.10795,0.22225 0.2921,0.34925 0.1905,0.127 0.4445,0.127 z M 20.417379,6.35 q -0.51435,0 -0.92075,-0.22225 -0.40005,-0.2286 -0.635,-0.6223 -0.2286,-0.3937 -0.2286,-0.9017 0,-0.508 0.2286,-0.89535 0.23495,-0.3937 0.635,-0.6223 0.4064,-0.2286 0.92075,-0.2286 0.508,0 0.90805,0.2286 0.4064,0.2286 0.635,0.6223 0.2286,0.38735 0.2286,0.89535 0,0.508 -0.2286,0.9017 -0.2286,0.3937 -0.635,0.6223 Q 20.925379,6.35 20.417379,6.35 Z m 0,-0.7874 q 0.24765,0 0.4445,-0.12065 0.19685,-0.127 0.3048,-0.3429 0.1143,-0.22225 0.1143,-0.4953 0,-0.2794 -0.1143,-0.4953 -0.10795,-0.22225 -0.3048,-0.3429 -0.19685,-0.127 -0.4445,-0.127 -0.24765,0 -0.45085,0.127 -0.19685,0.127 -0.31115,0.3429 -0.1143,0.2159 -0.10795,0.4953 -0.0064,0.27305 0.10795,0.4953 0.1143,0.2159 0.31115,0.3429 0.2032,0.12065 0.45085,0.12065 z m 2.139946,0.7239 V 2.92735 h 0.8636 l 0.0254,0.6858 -0.1778,0.0762 q 0.06985,-0.2286 0.24765,-0.41275 0.18415,-0.1905 0.43815,-0.3048 0.254,-0.1143 0.5334,-0.1143 0.381,0 0.635,0.1524 0.26035,0.1524 0.38735,0.46355 0.13335,0.3048 0.13335,0.75565 v 2.0574 h -0.9017 V 4.29895 q 0,-0.2286 -0.0635,-0.381 -0.0635,-0.1524 -0.19685,-0.22225 -0.127,-0.0762 -0.3175,-0.0635 -0.1524,0 -0.28575,0.0508 -0.127,0.04445 -0.22225,0.13335 -0.0889,0.0889 -0.14605,0.2032 -0.0508,0.1143 -0.0508,0.24765 v 2.0193 h -0.4445 q -0.14605,0 -0.26035,0 -0.1143,0 -0.19685,0 z m 5.391143,0 v -4.445 h 1.9304 q 0.4445,0 0.7493,0.13335 0.31115,0.127 0.4699,0.37465 0.15875,0.24765 0.15875,0.59055 0,0.381 -0.1905,0.635 -0.1905,0.254 -0.5461,0.34925 l -0.0064,-0.127 q 0.2921,0.06985 0.51435,0.2286 0.22225,0.15875 0.3429,0.3937 0.12065,0.23495 0.12065,0.5334 0,0.3302 -0.10795,0.5842 -0.10795,0.24765 -0.3175,0.41275 -0.20955,0.1651 -0.4953,0.254 -0.2794,0.08255 -0.62865,0.08255 z m 0.9144,-0.8255 h 1.0414 q 0.2032,0 0.3429,-0.05715 0.14605,-0.0635 0.22225,-0.1905 0.0762,-0.127 0.0762,-0.29845 0,-0.1651 -0.08255,-0.2794 -0.08255,-0.1143 -0.23495,-0.17145 -0.14605,-0.0635 -0.3556,-0.0635 h -1.00965 z m 0,-1.8161 h 0.9017 q 0.17145,0 0.29845,-0.0635 0.127,-0.0635 0.1905,-0.17145 0.06985,-0.10795 0.06985,-0.254 0,-0.23495 -0.1524,-0.36195 -0.1524,-0.127 -0.4572,-0.127 h -0.8509 z M 33.161823,6.35 q -0.4191,0 -0.75565,-0.2286 -0.33655,-0.2286 -0.5334,-0.6223 -0.19685,-0.3937 -0.19685,-0.9017 0,-0.508 0.19685,-0.89535 0.2032,-0.3937 0.5461,-0.61595 0.3429,-0.2286 0.78105,-0.2286 0.24765,0 0.45085,0.0762 0.20955,0.06985 0.36195,0.19685 0.15875,0.127 0.2667,0.2921 0.10795,0.1651 0.1524,0.3556 L 34.241323,3.7465 V 2.92735 h 0.89535 V 6.2865 h -0.90805 V 5.48005 l 0.2032,-0.01905 q -0.0508,0.1778 -0.1651,0.33655 -0.1143,0.15875 -0.28575,0.28575 -0.1651,0.12065 -0.37465,0.19685 Q 33.396773,6.35 33.161823,6.35 Z m 0.24765,-0.78105 q 0.254,0 0.4445,-0.12065 0.1905,-0.12065 0.2921,-0.33655 0.10795,-0.22225 0.10795,-0.51435 0,-0.28575 -0.10795,-0.50165 -0.1016,-0.2159 -0.2921,-0.33655 -0.1905,-0.127 -0.4445,-0.127 -0.24765,0 -0.43815,0.127 -0.18415,0.12065 -0.2921,0.33655 -0.10795,0.2159 -0.10795,0.50165 0,0.2921 0.10795,0.51435 0.10795,0.2159 0.2921,0.33655 0.1905,0.12065 0.43815,0.12065 z M 35.72088,6.2865 V 2.92735 h 0.8636 l 0.0254,0.6858 -0.1778,0.0762 q 0.06985,-0.2286 0.24765,-0.41275 0.18415,-0.1905 0.43815,-0.3048 0.254,-0.1143 0.5334,-0.1143 0.381,0 0.635,0.1524 0.26035,0.1524 0.38735,0.46355 0.13335,0.3048 0.13335,0.75565 v 2.0574 h -0.9017 V 4.29895 q 0,-0.2286 -0.0635,-0.381 -0.0635,-0.1524 -0.19685,-0.22225 -0.127,-0.0762 -0.3175,-0.0635 -0.1524,0 -0.28575,0.0508 -0.127,0.04445 -0.22225,0.13335 -0.0889,0.0889 -0.14605,0.2032 -0.0508,0.1143 -0.0508,0.24765 v 2.0193 h -0.4445 q -0.14605,0 -0.26035,0 -0.1143,0 -0.19685,0 z m 5.162548,1.4605 q -0.40005,0 -0.7874,-0.12065 -0.38735,-0.1143 -0.62865,-0.29845 l 0.3175,-0.6477 q 0.127,0.0889 0.2921,0.15875 0.1651,0.06985 0.3429,0.10795 0.18415,0.0381 0.37465,0.0381 0.3302,0 0.53975,-0.1016 0.2159,-0.1016 0.32385,-0.3048 0.10795,-0.19685 0.10795,-0.508 V 5.4864 l 0.1524,0.03175 q -0.0381,0.20955 -0.20955,0.38735 -0.17145,0.17145 -0.4318,0.2794 -0.26035,0.1016 -0.5334,0.1016 -0.4699,0 -0.83185,-0.2159 -0.36195,-0.2159 -0.5715,-0.5969 -0.20955,-0.381 -0.20955,-0.8763 0,-0.508 0.2032,-0.89535 0.20955,-0.3937 0.56515,-0.61595 0.36195,-0.2286 0.81915,-0.2286 0.1905,0 0.36195,0.04445 0.1778,0.04445 0.32385,0.127 0.1524,0.0762 0.2667,0.1778 0.12065,0.09525 0.19685,0.20955 0.0762,0.1143 0.09525,0.2286 l -0.18415,0.0508 0.0254,-0.76835 h 0.8636 V 6.0325 q 0,0.41275 -0.12065,0.73025 -0.12065,0.3175 -0.3556,0.5334 -0.2286,0.22225 -0.56515,0.33655 -0.3302,0.1143 -0.74295,0.1143 z m 0.0254,-2.1844 q 0.2667,0 0.46355,-0.12065 0.2032,-0.12065 0.31115,-0.33655 0.10795,-0.2159 0.10795,-0.508 0,-0.28575 -0.10795,-0.50165 -0.10795,-0.22225 -0.31115,-0.3429 -0.19685,-0.12065 -0.46355,-0.12065 -0.26035,0 -0.46355,0.127 -0.19685,0.12065 -0.3048,0.33655 -0.10795,0.2159 -0.10795,0.50165 0,0.28575 0.10795,0.508 0.10795,0.2159 0.3048,0.33655 0.2032,0.12065 0.46355,0.12065 z"
       id="text2"
       style="font-weight:600;font-size:6.35px;line-height:0em;font-family:Lexend;-inkscape-font-specification:'Lexend Semi-Bold';text-align:center;letter-spacing:-0.3175px;text-anchor:middle;fill:#3e403a;stroke-width:0;paint-order:stroke markers fill"
       aria-label="Brandon Bang" />
  </g>
</svg>
